<svg xmlns="http://www.w3.org/2000/svg" viewBox="0 0 64 64" id="js"><path fill="#985a23" d="M11 3h46v54H11z"></path><path fill="#f7fcff" d="M53 17v44H7V7h36l10 10z"></path><path fill="#facf5b" d="M7 7v18h46v-8L43 7H7z"></path><path fill="#cb782e" d="M53 17h-8a2 2 0 0 1-2-2V7Z"></path><path fill="#985a23" d="M24 10a1 1 0 0 0-1 1v7a2 2 0 0 1-4 0 1 1 0 0 0-2 0 4 4 0 0 0 8 0v-7a1 1 0 0 0-1-1zm19 32a2 2 0 0 1-2-2v-2a4 4 0 0 0-4-4 1 1 0 0 0 0 2 2 2 0 0 1 2 2v2a4 4 0 0 0 1.36 3A4 4 0 0 0 39 46v2a2 2 0 0 1-2 2 1 1 0 0 0 0 2 4 4 0 0 0 4-4v-2a2 2 0 0 1 2-2 1 1 0 0 0 0-2zM23 52a1 1 0 0 0 0-2 2 2 0 0 1-2-2v-2a4 4 0 0 0-1.36-3A4 4 0 0 0 21 40v-2a2 2 0 0 1 2-2 1 1 0 0 0 0-2 4 4 0 0 0-4 4v2a2 2 0 0 1-2 2 1 1 0 0 0 0 2 2 2 0 0 1 2 2v2a4 4 0 0 0 4 4z"></path><circle cx="30" cy="40" r="1" fill="#985a23"></circle><path fill="#985a23" d="M28 49a3 3 0 0 0 3-3 1 1 0 0 0-2 0 1 1 0 0 1-1 1 1 1 0 0 0 0 2zm3.5-29H30a1 1 0 0 1-1-1 1 1 0 0 0-2 0 3 3 0 0 0 3 3h1.5a3.5 3.5 0 0 0 0-7h-1a1.5 1.5 0 0 1 0-3H32a1 1 0 0 1 1 1 1 1 0 0 0 2 0 3 3 0 0 0-3-3h-1.5a3.5 3.5 0 0 0 0 7h1a1.5 1.5 0 0 1 0 3z"></path></svg>